HIERARCHY
ROOT newVegas:Hips
{
	OFFSET 0.000000 96.479958 0.000000
	CHANNELS 6 Xposition Yposition Zposition Xrotation Yrotation Zrotation
	JOINT newVegas:Pelvis
	{
		OFFSET 0.000000 0.000000 0.000000
		CHANNELS 3 Xrotation Yrotation Zrotation
		JOINT newVegas:LeftUpLeg
		{
			OFFSET 18.735201 -5.666702 -4.541200
			CHANNELS 3 Xrotation Yrotation Zrotation
			JOINT newVegas:LeftLeg
			{
				OFFSET -0.021200 -31.938179 0.493100
				CHANNELS 3 Xrotation Yrotation Zrotation
				JOINT newVegas:LeftFoot
				{
					OFFSET 0.021200 -31.938179 -4.336299
					CHANNELS 3 Xrotation Yrotation Zrotation
					JOINT newVegas:LeftToeBase
					{
						OFFSET 0.943001 -26.722000 15.023500
						CHANNELS 3 Xrotation Yrotation Zrotation
						End Site
						{
							OFFSET 0.000000 30.670183 0.000000
						}
					}
				}
				JOINT newVegas:Left_PantLeg
				{
					OFFSET 0.663870 -9.044666 -1.108900
					CHANNELS 3 Xrotation Yrotation Zrotation
					End Site
					{
						OFFSET 1.415995 20.635357 0.000000
					}
				}
			}
		}
		JOINT newVegas:RightUpLeg
		{
			OFFSET -18.735201 -5.666702 -4.541200
			CHANNELS 3 Xrotation Yrotation Zrotation
			JOINT newVegas:RightLeg
			{
				OFFSET 0.018946 -31.938133 0.493100
				CHANNELS 3 Xrotation Yrotation Zrotation
				JOINT newVegas:RightFoot
				{
					OFFSET -0.018946 -31.938126 -4.336299
					CHANNELS 3 Xrotation Yrotation Zrotation
					JOINT newVegas:RightToeBase
					{
						OFFSET -0.943001 -26.722004 15.023500
						CHANNELS 3 Xrotation Yrotation Zrotation
						End Site
						{
							OFFSET 0.000000 30.670187 0.000000
						}
					}
				}
				JOINT newVegas:Right_PantLeg
				{
					OFFSET -0.661674 -9.044716 -1.108900
					CHANNELS 3 Xrotation Yrotation Zrotation
					End Site
					{
						OFFSET -1.415958 20.635269 0.000000
					}
				}
			}
		}
	}
	JOINT newVegas:Spine
	{
		OFFSET 0.000000 10.199997 -0.299500
		CHANNELS 3 Xrotation Yrotation Zrotation
		JOINT newVegas:Spine1
		{
			OFFSET 0.000000 11.900002 -1.516600
			CHANNELS 3 Xrotation Yrotation Zrotation
			JOINT newVegas:Spine2
			{
				OFFSET 0.000000 13.600006 -2.842500
				CHANNELS 3 Xrotation Yrotation Zrotation
				JOINT newVegas:Neck
				{
					OFFSET 0.000000 9.624100 -2.890100
					CHANNELS 3 Xrotation Yrotation Zrotation
					JOINT newVegas:Head
					{
						OFFSET 0.000000 14.068802 -1.351900
						CHANNELS 3 Xrotation Yrotation Zrotation
						JOINT newVegas:Hair_Back
						{
							OFFSET 0.000000 3.231903 -17.524799
							CHANNELS 3 Xrotation Yrotation Zrotation
							End Site
							{
								OFFSET 0.000000 19.849884 0.000000
							}
						}
						JOINT newVegas:Hair_Front
						{
							OFFSET 0.000000 31.260406 4.573800
							CHANNELS 3 Xrotation Yrotation Zrotation
							JOINT newVegas:Hair_Front1
							{
								OFFSET 0.000000 2.284103 11.993300
								CHANNELS 3 Xrotation Yrotation Zrotation
								JOINT newVegas:Hair_Front2
								{
									OFFSET 0.000000 2.284103 11.993300
									CHANNELS 3 Xrotation Yrotation Zrotation
									End Site
									{
										OFFSET 0.000000 12.208862 0.000000
									}
								}
							}
						}
						JOINT newVegas:Jowel
						{
							OFFSET 0.000000 -7.458206 6.864100
							CHANNELS 3 Xrotation Yrotation Zrotation
							End Site
							{
								OFFSET 0.000000 19.849884 0.000000
							}
						}
					}
				}
				JOINT newVegas:LeftShoulder
				{
					OFFSET 15.263000 10.923401 -0.547700
					CHANNELS 3 Xrotation Yrotation Zrotation
					JOINT newVegas:LeftArm
					{
						OFFSET 25.438599 -2.830597 -13.032500
						CHANNELS 3 Xrotation Yrotation Zrotation
						JOINT newVegas:LeftForeArm
						{
							OFFSET 29.960503 0.000000 0.000000
							CHANNELS 3 Xrotation Yrotation Zrotation
							JOINT newVegas:LeftHand
							{
								OFFSET 27.849251 0.000000 0.000000
								CHANNELS 3 Xrotation Yrotation Zrotation
								JOINT newVegas:LeftHandThumb1
								{
									OFFSET 4.487587 -3.305161 6.305391
									CHANNELS 3 Xrotation Yrotation Zrotation
									JOINT newVegas:LeftHandThumb2
									{
										OFFSET 5.480453 -3.164139 3.164143
										CHANNELS 3 Xrotation Yrotation Zrotation
										JOINT newVegas:LeftHandThumb3
										{
											OFFSET 5.159721 -2.978973 2.978967
											CHANNELS 3 Xrotation Yrotation Zrotation
											End Site
											{
												OFFSET 2.494507 5.926697 1.738678
											}
										}
									}
								}
								JOINT newVegas:LeftHandIndex1
								{
									OFFSET 18.578728 -0.527832 5.208049
									CHANNELS 3 Xrotation Yrotation Zrotation
									JOINT newVegas:LeftHandIndex2
									{
										OFFSET 3.192009 0.000000 0.000000
										CHANNELS 3 Xrotation Yrotation Zrotation
										JOINT newVegas:LeftHandIndex3
										{
											OFFSET 3.835129 0.000000 0.000000
											CHANNELS 3 Xrotation Yrotation Zrotation
											End Site
											{
												OFFSET -0.034599 3.816971 0.371180
											}
										}
									}
								}
								JOINT newVegas:LeftHandMiddle1
								{
									OFFSET 18.476105 0.000000 0.000000
									CHANNELS 3 Xrotation Yrotation Zrotation
									JOINT newVegas:LeftHandMiddle2
									{
										OFFSET 3.324875 0.000000 0.000000
										CHANNELS 3 Xrotation Yrotation Zrotation
										JOINT newVegas:LeftHandMiddle3
										{
											OFFSET 4.596550 0.000000 0.000000
											CHANNELS 3 Xrotation Yrotation Zrotation
											End Site
											{
												OFFSET 0.057701 4.578827 0.399218
											}
										}
									}
								}
								JOINT newVegas:LeftHandRing1
								{
									OFFSET 17.732719 0.121887 -4.201567
									CHANNELS 3 Xrotation Yrotation Zrotation
									JOINT newVegas:LeftHandRing2
									{
										OFFSET 2.733170 0.000000 0.000000
										CHANNELS 3 Xrotation Yrotation Zrotation
										JOINT newVegas:LeftHandRing3
										{
											OFFSET 3.178268 0.000000 0.000000
											CHANNELS 3 Xrotation Yrotation Zrotation
											End Site
											{
												OFFSET 0.119102 3.170624 0.185394
											}
										}
									}
								}
								JOINT newVegas:LeftHandPinky1
								{
									OFFSET 15.989624 -0.606689 -7.535461
									CHANNELS 3 Xrotation Yrotation Zrotation
									JOINT newVegas:LeftHandPinky2
									{
										OFFSET 2.538986 0.000000 0.000000
										CHANNELS 3 Xrotation Yrotation Zrotation
										JOINT newVegas:LeftHandPinky3
										{
											OFFSET 2.593102 0.000000 0.000000
											CHANNELS 3 Xrotation Yrotation Zrotation
											End Site
											{
												OFFSET -0.150902 2.584198 0.152708
											}
										}
									}
								}
							}
							JOINT newVegas:Left_Sleeve
							{
								OFFSET 0.267448 -0.649796 0.577675
								CHANNELS 3 Xrotation Yrotation Zrotation
								End Site
								{
									OFFSET 0.000000 15.991241 0.000000
								}
							}
							JOINT newVegas:Left_CapeC
							{
								OFFSET 15.715958 -8.608795 -6.935905
								CHANNELS 3 Xrotation Yrotation Zrotation
								JOINT newVegas:Left_CapeC1
								{
									OFFSET 0.000000 -8.688499 0.000000
									CHANNELS 3 Xrotation Yrotation Zrotation
									End Site
									{
										OFFSET 0.000000 8.688499 0.000000
									}
								}
							}
						}
						JOINT newVegas:Left_CapeB
						{
							OFFSET 26.118385 -8.608795 -7.079235
							CHANNELS 3 Xrotation Yrotation Zrotation
							JOINT newVegas:Left_CapeB1
							{
								OFFSET 0.000000 -8.688499 0.000000
								CHANNELS 3 Xrotation Yrotation Zrotation
								End Site
								{
									OFFSET 0.000000 8.688499 0.000000
								}
							}
						}
						JOINT newVegas:Left_CapeA
						{
							OFFSET 5.115639 -8.608795 -10.395809
							CHANNELS 3 Xrotation Yrotation Zrotation
							JOINT newVegas:Left_CapeA1
							{
								OFFSET 0.000000 -8.688499 0.000000
								CHANNELS 3 Xrotation Yrotation Zrotation
								End Site
								{
									OFFSET 0.000000 8.688499 0.000000
								}
							}
						}
					}
				}
				JOINT newVegas:RightShoulder
				{
					OFFSET -15.263000 10.923401 -0.547700
					CHANNELS 3 Xrotation Yrotation Zrotation
					JOINT newVegas:RightArm
					{
						OFFSET -25.438599 -2.830597 -13.032500
						CHANNELS 3 Xrotation Yrotation Zrotation
						JOINT newVegas:RightForeArm
						{
							OFFSET -29.960503 0.000000 0.000000
							CHANNELS 3 Xrotation Yrotation Zrotation
							JOINT newVegas:RightHand
							{
								OFFSET -27.849251 0.000000 0.000000
								CHANNELS 3 Xrotation Yrotation Zrotation
								JOINT newVegas:RightHandThumb1
								{
									OFFSET -4.487587 -3.305161 6.305391
									CHANNELS 3 Xrotation Yrotation Zrotation
									JOINT newVegas:RightHandThumb2
									{
										OFFSET -5.480453 -3.164139 3.164143
										CHANNELS 3 Xrotation Yrotation Zrotation
										JOINT newVegas:RightHandThumb3
										{
											OFFSET -5.159721 -2.978973 2.978967
											CHANNELS 3 Xrotation Yrotation Zrotation
											End Site
											{
												OFFSET -2.494507 5.926697 1.738678
											}
										}
									}
								}
								JOINT newVegas:RightHandIndex1
								{
									OFFSET -18.578728 -0.527832 5.208049
									CHANNELS 3 Xrotation Yrotation Zrotation
									JOINT newVegas:RightHandIndex2
									{
										OFFSET -3.192009 0.000000 0.000000
										CHANNELS 3 Xrotation Yrotation Zrotation
										JOINT newVegas:RightHandIndex3
										{
											OFFSET -3.835129 0.000000 0.000000
											CHANNELS 3 Xrotation Yrotation Zrotation
											End Site
											{
												OFFSET 0.034599 3.816971 0.371180
											}
										}
									}
								}
								JOINT newVegas:RightHandMiddle1
								{
									OFFSET -18.476105 0.000000 0.000000
									CHANNELS 3 Xrotation Yrotation Zrotation
									JOINT newVegas:RightHandMiddle2
									{
										OFFSET -3.324875 0.000000 0.000000
										CHANNELS 3 Xrotation Yrotation Zrotation
										JOINT newVegas:RightHandMiddle3
										{
											OFFSET -4.596550 0.000000 0.000000
											CHANNELS 3 Xrotation Yrotation Zrotation
											End Site
											{
												OFFSET -0.057701 4.578827 0.399218
											}
										}
									}
								}
								JOINT newVegas:RightHandRing1
								{
									OFFSET -17.732719 0.121887 -4.201567
									CHANNELS 3 Xrotation Yrotation Zrotation
									JOINT newVegas:RightHandRing2
									{
										OFFSET -2.733170 0.000000 0.000000
										CHANNELS 3 Xrotation Yrotation Zrotation
										JOINT newVegas:RightHandRing3
										{
											OFFSET -3.178268 0.000000 0.000000
											CHANNELS 3 Xrotation Yrotation Zrotation
											End Site
											{
												OFFSET -0.119102 3.170624 0.185394
											}
										}
									}
								}
								JOINT newVegas:RightHandPinky1
								{
									OFFSET -15.989624 -0.606689 -7.535461
									CHANNELS 3 Xrotation Yrotation Zrotation
									JOINT newVegas:RightHandPinky2
									{
										OFFSET -2.538986 0.000000 0.000000
										CHANNELS 3 Xrotation Yrotation Zrotation
										JOINT newVegas:RightHandPinky3
										{
											OFFSET -2.593102 0.000000 0.000000
											CHANNELS 3 Xrotation Yrotation Zrotation
											End Site
											{
												OFFSET 0.150902 2.584198 0.152708
											}
										}
									}
								}
							}
							JOINT newVegas:Right_CapeC
							{
								OFFSET -15.715958 -8.608795 -6.935905
								CHANNELS 3 Xrotation Yrotation Zrotation
								JOINT newVegas:Right_CapeC1
								{
									OFFSET 0.000000 -8.688499 0.000000
									CHANNELS 3 Xrotation Yrotation Zrotation
									End Site
									{
										OFFSET 0.000000 8.688499 0.000000
									}
								}
							}
							JOINT newVegas:Right_Sleeve
							{
								OFFSET -0.267448 -0.649994 0.577675
								CHANNELS 3 Xrotation Yrotation Zrotation
								End Site
								{
									OFFSET 0.000000 15.991302 0.000000
								}
							}
						}
						JOINT newVegas:Right_CapeA
						{
							OFFSET -5.115540 -8.608795 -10.395824
							CHANNELS 3 Xrotation Yrotation Zrotation
							JOINT newVegas:Right_CapeA1
							{
								OFFSET 0.000000 -8.688499 0.000000
								CHANNELS 3 Xrotation Yrotation Zrotation
								End Site
								{
									OFFSET 0.000000 8.688499 0.000000
								}
							}
						}
						JOINT newVegas:Right_CapeB
						{
							OFFSET -26.118187 -8.608795 -7.079266
							CHANNELS 3 Xrotation Yrotation Zrotation
							JOINT newVegas:Right_CapeB1
							{
								OFFSET 0.000000 -8.688499 0.000000
								CHANNELS 3 Xrotation Yrotation Zrotation
								End Site
								{
									OFFSET 0.000000 8.688499 0.000000
								}
							}
						}
					}
				}
				JOINT newVegas:Left_Collar
				{
					OFFSET 18.625099 8.655502 8.828100
					CHANNELS 3 Xrotation Yrotation Zrotation
					JOINT newVegas:Left_Collar1
					{
						OFFSET 14.783401 10.540405 -1.259500
						CHANNELS 3 Xrotation Yrotation Zrotation
						End Site
						{
							OFFSET 0.000000 18.199875 0.000000
						}
					}
				}
				JOINT newVegas:Collar_Back
				{
					OFFSET 0.000000 15.630707 -20.132601
					CHANNELS 3 Xrotation Yrotation Zrotation
					End Site
					{
						OFFSET 0.000000 22.523010 0.000000
					}
				}
				JOINT newVegas:Left_Peck
				{
					OFFSET 17.239599 -5.132599 25.482599
					CHANNELS 3 Xrotation Yrotation Zrotation
					End Site
					{
						OFFSET 0.000000 22.523010 0.000000
					}
				}
				JOINT newVegas:Right_Peck
				{
					OFFSET -17.239599 -5.132202 25.482599
					CHANNELS 3 Xrotation Yrotation Zrotation
					End Site
					{
						OFFSET 0.000000 22.523010 0.000000
					}
				}
				JOINT newVegas:Right_Collar
				{
					OFFSET -18.625099 8.655792 8.828100
					CHANNELS 3 Xrotation Yrotation Zrotation
					JOINT newVegas:Right_Collar1
					{
						OFFSET -14.783401 10.539993 -1.259500
						CHANNELS 3 Xrotation Yrotation Zrotation
						End Site
						{
							OFFSET 0.000000 18.199631 0.000000
						}
					}
				}
			}
		}
		JOINT newVegas:Belly
		{
			OFFSET 0.000000 -6.540398 9.014299
			CHANNELS 3 Xrotation Yrotation Zrotation
			End Site
			{
				OFFSET 0.000000 11.566666 0.000000
			}
		}
	}
	JOINT newVegas:ElvisFacialAnim_Joint
	{
		OFFSET 1.000000 -95.330101 -8.825800
		CHANNELS 3 Xrotation Yrotation Zrotation
		End Site
		{
			OFFSET 0.000000 35.315800 0.000000
		}
	}
}
MOTION
Frames: 4
Frame Time: 0.033333
-29.440178 23.871193 -130.350845 -104.191660 2.419691 -19.877049 -0.000000 0.000000 -0.000001 -74.648333 -34.891956 -4.273777 113.460193 -6.057588 -3.440914 20.250042 -6.739644 -0.619302 -0.000001 0.000001 -0.000001 -0.000001 0.000000 0.000000 -22.970937 -28.445691 -9.320231 43.272841 -0.587480 1.572997 19.259300 0.184697 24.552085 -0.000000 -0.000000 0.000001 -0.000000 0.000002 -0.000000 3.766270 0.761656 -4.195878 7.529807 1.761647 -5.452826 7.529810 1.761655 -5.452820 4.815861 1.804130 -2.225707 4.815859 1.804121 -2.225706 -0.000000 0.000000 0.000002 4.815862 1.804121 -2.225704 4.815866 1.804129 -2.225717 0.000000 0.000000 -0.000001 -0.000000 0.000000 0.000001 -0.871576 7.303622 5.797258 -8.517440 -41.993099 -45.957881 -0.982522 -96.368587 -0.978381 17.082629 14.623666 33.492246 -0.504152 -7.279634 -11.476341 0.560502 11.442602 -0.382593 0.000000 -0.000001 -0.000001 -4.598711 -6.347920 -10.556504 0.164134 0.941252 -29.036995 -0.000000 0.000001 0.000000 4.928656 2.850022 -1.229810 -0.908553 -2.264031 -36.146539 0.000000 0.000002 0.000000 3.630643 4.227460 5.443511 -1.070482 -3.578162 -38.765172 -0.000000 0.000001 0.000000 0.826747 17.538609 -15.221049 -0.067001 -3.933301 -11.549987 0.000004 -0.000003 0.000001 0.000001 0.000000 -0.000002 0.000001 0.000000 -0.000002 0.000001 0.000001 -0.000002 0.000001 -0.000001 -0.000000 0.000001 -0.000002 0.000000 0.000001 -0.000001 -0.000000 0.000000 0.000000 -0.000001 -0.138028 -1.806104 -6.055645 -48.885607 -4.039428 -13.237765 6.850746 75.093470 -7.023531 7.495849 -14.808395 4.641445 27.376440 -9.599105 0.253780 8.402792 -3.316599 -11.124331 0.000001 -0.000008 -0.000001 0.422744 1.482896 1.030297 -0.885048 -0.194119 12.819438 -0.000003 0.000001 0.000002 0.681323 -8.213734 18.753456 -4.917064 3.177344 56.026273 -0.000000 -0.000002 -0.000001 -3.675630 -14.187315 16.419724 -0.359879 5.234061 49.765687 -0.000002 0.000004 -0.000001 -2.097603 -21.997353 22.983458 -0.200642 9.353282 45.232668 -0.000000 -0.000002 0.000000 0.000002 -0.000003 -0.000003 -0.000000 -0.000002 -0.000001 0.000002 -0.000003 -0.000003 0.000000 0.000001 0.000002 0.000000 0.000002 0.000001 0.000000 0.000001 0.000002 0.000000 0.000002 0.000001 0.000001 0.000000 -0.000001 0.000001 0.000000 -0.000001 0.000001 0.000000 -0.000001 0.000001 0.000000 -0.000001 0.000001 0.000000 -0.000001 0.000001 0.000000 -0.000001 0.000001 0.000000 -0.000001 0.000001 0.000000 -0.000001 -0.000000 0.000000 -0.000001 
-31.251232 23.319809 -132.289642 -108.924626 -8.786179 -24.385626 -0.000000 -0.000000 0.000001 -76.487682 -29.844573 -8.648847 122.624435 -3.358451 -3.043649 25.121291 -10.121935 3.150773 -0.000000 -0.000001 0.000002 0.000001 -0.000001 0.000002 -11.922038 -24.281937 0.307119 37.169428 -1.841344 1.220922 24.332856 -3.451092 26.097787 0.000001 -0.000003 -0.000003 0.000000 -0.000003 -0.000000 2.808286 1.677458 -3.537935 5.585298 3.327803 -4.051042 5.585302 3.327806 -4.051035 4.589177 1.322241 -1.775054 4.589324 1.322240 -1.775070 -0.000000 0.000000 0.000004 4.589286 1.322185 -1.775057 4.589222 1.322284 -1.775079 -0.000000 0.000000 -0.000002 -0.000000 0.000000 0.000002 -0.062664 3.808713 0.577904 -15.056240 -49.394501 -38.754712 -1.218676 -95.615060 -1.225887 15.539341 16.303171 29.910027 -0.621636 -7.311303 -11.166533 0.570922 11.461366 -0.382829 -0.000003 0.000001 -0.000003 -4.621725 -6.462537 -8.462660 0.164331 0.941532 -29.058442 -0.000001 0.000001 0.000001 4.756131 3.853069 1.081044 -0.909577 -2.265450 -36.167942 -0.000002 0.000002 0.000004 3.629395 4.623087 8.428259 -1.071627 -3.579563 -38.786595 -0.000003 0.000003 0.000002 1.311062 19.644643 -15.387499 -0.067405 -3.935756 -11.571320 0.000001 0.000000 0.000000 0.000001 0.000002 -0.000002 0.000001 0.000002 -0.000002 0.000000 0.000002 -0.000002 0.000003 0.000001 -0.000000 0.000003 0.000000 -0.000000 0.000003 0.000001 -0.000000 0.000001 0.000000 -0.000000 0.035567 -0.259390 -7.259549 -58.869626 2.955850 -9.518111 4.017850 68.081905 -4.050772 21.654732 -18.538450 20.257699 32.536275 -9.452537 3.220019 9.266765 -2.412694 -12.743723 -0.000001 -0.000002 -0.000001 0.694084 1.013022 2.268151 -1.029232 0.031510 11.254763 -0.000001 -0.000003 0.000001 1.298466 -7.272125 21.087753 -5.868760 3.085846 63.022483 0.000000 -0.000001 -0.000002 -4.416692 -14.173816 19.254546 -0.562756 5.777989 55.229125 -0.000000 0.000001 -0.000000 -3.641914 -22.513046 28.263482 -0.144490 9.753558 48.327475 0.000000 0.000005 0.000000 -0.000003 0.000000 -0.000001 -0.000004 -0.000001 -0.000001 -0.000003 -0.000000 -0.000001 -0.000000 -0.000003 -0.000000 -0.000000 -0.000002 0.000003 -0.000000 -0.000003 -0.000000 -0.000000 -0.000002 0.000003 -0.000000 -0.000000 0.000001 -0.000000 -0.000000 0.000001 -0.000000 -0.000000 0.000001 -0.000000 -0.000000 0.000001 -0.000000 -0.000000 0.000001 -0.000000 -0.000000 0.000001 -0.000000 -0.000000 0.000001 -0.000001 -0.000001 -0.000000 -0.000000 -0.000000 0.000001 
-32.791592 22.669800 -135.371017 -116.207473 -19.378765 -31.675832 0.000001 0.000000 -0.000003 -69.976716 -18.274033 -6.402140 125.741255 2.364953 -2.316629 28.094175 -10.516513 8.703370 0.000002 0.000001 -0.000001 -0.000000 0.000000 -0.000001 -1.934294 -14.349753 9.364762 31.664805 -2.671097 0.916704 29.991648 -10.412282 23.480452 0.000001 0.000001 -0.000002 0.000000 -0.000003 -0.000000 3.081746 2.255662 -2.252487 6.120448 4.160490 -2.294697 6.120454 4.160495 -2.294702 3.289445 0.865878 -1.332153 3.289440 0.865897 -1.332124 -0.000000 0.000000 -0.000002 3.289533 0.865919 -1.332156 3.289397 0.865867 -1.332128 -0.000000 0.000000 0.000000 -0.000000 0.000000 -0.000002 0.521094 -2.455574 -1.963837 -21.840968 -52.495615 -31.255823 -0.890816 -98.487988 -0.908599 19.332745 16.764252 27.239295 -0.645089 -7.297162 -11.036602 0.593110 11.501323 -0.383327 0.000002 -0.000002 -0.000001 -4.621158 -6.508219 -8.153663 0.164740 0.942150 -29.104119 0.000001 -0.000002 0.000002 4.578992 4.538839 1.578581 -0.911785 -2.268454 -36.213537 0.000001 0.000004 0.000003 3.621036 4.770317 9.454876 -1.074059 -3.582585 -38.832231 0.000001 -0.000000 -0.000004 1.625711 21.080298 -16.906265 -0.068256 -3.940990 -11.616727 -0.000002 -0.000005 0.000004 0.000001 -0.000000 -0.000001 0.000001 -0.000000 -0.000001 0.000001 0.000000 -0.000001 0.000001 -0.000001 0.000001 0.000000 -0.000001 0.000001 0.000001 -0.000001 0.000001 -0.000001 -0.000001 0.000000 0.273590 1.461810 -8.274436 -75.853485 6.972295 5.782157 3.433821 68.896200 -2.330558 47.530337 -15.125500 24.421237 37.156468 -8.815049 6.169253 10.088768 -1.547867 -14.330797 0.000001 -0.000003 -0.000001 1.138915 0.497749 6.326107 -1.177106 0.136670 11.817179 -0.000000 0.000001 0.000002 1.732637 -5.995934 26.789863 -6.871646 2.719791 71.827014 -0.000001 -0.000003 0.000002 -5.446854 -14.145260 26.313022 -1.034122 6.490670 62.571547 -0.000001 -0.000003 -0.000001 -5.408110 -21.622939 37.040806 -0.392311 10.497290 53.385001 0.000001 0.000003 0.000000 0.000003 0.000000 -0.000000 0.000001 0.000000 0.000000 0.000003 0.000000 -0.000000 0.000000 0.000007 -0.000001 0.000000 0.000008 -0.000000 0.000000 0.000007 -0.000001 0.000000 0.000008 -0.000001 0.000000 -0.000001 -0.000002 0.000000 -0.000001 -0.000002 0.000000 -0.000001 -0.000002 0.000000 -0.000001 -0.000002 0.000000 -0.000001 -0.000002 0.000000 -0.000001 -0.000002 0.000000 -0.000001 -0.000002 -0.000000 0.000001 -0.000002 0.000001 0.000000 -0.000003 
-34.527618 22.624382 -139.071625 -123.342192 -28.283318 -40.077440 -0.000001 0.000003 -0.000000 -61.136135 -6.571103 -2.834806 121.406817 5.810376 -2.007301 27.334598 -7.770710 11.452660 0.000000 -0.000002 0.000003 -0.000002 0.000000 -0.000000 1.920240 2.968609 17.109043 27.559781 -2.985658 0.702072 36.419661 -26.062124 26.170814 -0.000003 0.000002 -0.000001 0.000000 -0.000002 -0.000000 3.073482 2.112936 -1.204844 6.150932 3.875099 -1.711209 6.150894 3.875074 -1.711222 1.447561 0.450629 -1.025741 1.447535 0.450620 -1.025740 0.000001 0.000001 0.000001 1.447501 0.450571 -1.025737 1.447590 0.450664 -1.025748 0.000001 0.000001 -0.000001 0.000001 0.000001 0.000000 0.952719 -8.497431 -1.458144 -28.347344 -56.865502 -27.742143 -0.712630 -100.500913 -0.737082 26.850636 13.096181 21.800670 -0.292793 -7.195160 -11.395667 0.665080 11.630829 -0.385098 -0.000000 -0.000000 -0.000003 -4.509150 -6.280500 -15.680508 0.169169 0.948515 -29.570235 0.000003 -0.000000 0.000000 4.439471 4.123591 -5.798965 -0.934373 -2.299045 -36.678980 -0.000002 0.000000 0.000003 3.602423 4.265598 2.352031 -1.099028 -3.613271 -39.298238 0.000001 -0.000000 -0.000005 1.509316 20.776358 -25.226397 -0.077340 -3.994313 -12.080302 -0.000000 -0.000003 -0.000001 0.000000 0.000001 -0.000000 0.000000 0.000001 -0.000000 -0.000000 0.000000 0.000000 0.000000 -0.000001 0.000001 0.000000 -0.000002 0.000001 0.000000 -0.000001 0.000001 -0.000002 -0.000002 0.000002 0.575019 3.371991 -9.087795 -87.344555 2.916273 24.844164 -2.296206 69.506532 3.044805 66.204955 -7.662489 23.465641 41.082092 -7.812830 8.938815 10.848429 -0.757881 -15.832211 -0.000003 -0.000004 -0.000001 1.993238 0.027940 15.731345 -1.351837 -0.027426 16.591639 -0.000000 0.000001 -0.000001 1.471722 -4.065266 38.498761 -7.911464 1.870267 84.259884 -0.000000 -0.000001 -0.000005 -6.961967 -14.415314 40.845501 -2.075586 7.441588 73.699100 -0.000003 -0.000001 0.000001 -7.838331 -19.026281 52.318836 -1.338323 11.840899 62.394249 0.000002 0.000003 0.000003 -0.000001 0.000001 0.000001 -0.000001 -0.000001 0.000000 -0.000001 0.000000 0.000000 0.000001 0.000002 -0.000000 0.000001 0.000003 -0.000001 0.000001 0.000002 -0.000000 0.000001 0.000003 -0.000000 -0.000000 0.000000 0.000002 -0.000000 0.000000 0.000002 -0.000000 0.000000 0.000002 -0.000000 0.000000 0.000002 -0.000000 0.000000 0.000002 -0.000000 0.000000 0.000002 -0.000000 0.000000 0.000002 0.000003 -0.000001 -0.000003 -0.000001 0.000003 -0.000000 
